<svg width="84" height="84" viewBox="0 0 84 84" fill="none" xmlns="http://www.w3.org/2000/svg">
<path d="M42 0C33.6932 0 25.5729 2.46326 18.6661 7.07828C11.7592 11.6933 6.37596 18.2528 3.19708 25.9273C0.0181978 33.6018 -0.813542 42.0466 0.807037 50.1938C2.42762 58.341 6.42773 65.8247 12.3015 71.6985C18.1753 77.5723 25.659 81.5724 33.8062 83.193C41.9534 84.8136 50.3982 83.9818 58.0727 80.8029C65.7472 77.6241 72.3067 72.2408 76.9217 65.3339C81.5368 58.4271 84 50.3068 84 42C83.9789 30.8674 79.5471 20.1968 71.6751 12.3249C63.8032 4.45292 53.1326 0.0211446 42 0ZM57.33 44.6L37.16 56.25C36.7038 56.5134 36.1863 56.652 35.6595 56.6519C35.1328 56.6518 34.6153 56.5131 34.1592 56.2495C33.7031 55.986 33.3244 55.607 33.0612 55.1507C32.7981 54.6943 32.6597 54.1768 32.66 53.65V30.35C32.6597 29.8232 32.7981 29.3057 33.0612 28.8493C33.3244 28.393 33.7031 28.014 34.1592 27.7505C34.6153 27.4869 35.1328 27.3482 35.6595 27.3481C36.1863 27.348 36.7038 27.4866 37.16 27.75L57.33 39.4C57.787 39.663 58.1665 40.0419 58.4305 40.4983C58.6944 40.9548 58.8334 41.4727 58.8334 42C58.8334 42.5273 58.6944 43.0452 58.4305 43.5017C58.1665 43.9581 57.787 44.337 57.33 44.6Z" fill="#E6E6E6"/>
</svg>
